<svg xmlns="http://www.w3.org/2000/svg" viewBox="0 0 328.15 227.74"><path d="M284.07,227.6c4.59,0,8.57,0,12.55,0,19.41-.07,31.49-12.18,31.5-31.64q0-36.93,0-73.87c0-30.5.05-61,0-91.51,0-15.28-9.44-27.11-23.92-29.59-4.67-.8-9.84-2.32-14.28,1.45Q230.68,52.78,171.44,103.09c-1.11.94-2.25,1.84-3.42,2.8-.94-.75-1.63-1.27-2.3-1.82Q103.79,53.21,41.78,2.42A12.6,12.6,0,0,0,35.43.16a43.34,43.34,0,0,0-9,.2A28.53,28.53,0,0,0,.6,24.52C-.15,29.16,0,34,0,38.72Q0,117.85,0,197c0,14.82,8.77,26.54,22.58,29.63,4.44,1,9.19.5,13.76,1,4,.48,4.67-1.16,4.66-4.81Q40.85,145.42,40.94,68v-4.9l123.32,98L284.07,68.35Z" fill="#fff"/></svg>